
<svg xmlns="http://www.w3.org/2000/svg" version="1.1" xmlns:xlink="http://www.w3.org/1999/xlink" preserveAspectRatio="none" x="0px" y="0px" width="200px" height="200px" viewBox="0 0 200 200">
<defs>
<g id="Layer0_0_FILL">
<path fill="#0066CC" stroke="none" d="
M 30.5 73.05
Q 28.65 71.15 26 71.15
L 19.6 71.15
Q 16.95 71.15 15.1 73.05 13.2 74.9 13.2 77.55 13.2 80.2 15.1 82.05 16.95 83.95 19.6 83.95
L 26 83.95
Q 28.65 83.95 30.5 82.05 32.35 80.2 32.35 77.55 32.35 74.9 30.5 73.05
M 169.2 92.45
Q 169.2 92.35 169.15 92.3 168.6 91.3 167.3 90.05 164.1 86.9 158.05 84.4 157.35 84.15 156.6 83.85 151.75 71.6 147.4 63.3 142.7 54.3 140.2 53.05 133.95 50 124.4 48.85 117.8 48.1 104.15 47.55
L 104.15 47.5
Q 103.2 47.5 102.2 47.5
L 102.2 47.45
Q 102.05 47.45 101.9 47.45 101.85 47.45 101.8 47.45 97.85 47.4 93.6 47.4
L 93.6 47.55
Q 92.65 47.55 91.65 47.6
L 91.65 47.65
Q 78 48.15 71.4 48.95 61.85 50.1 55.65 53.15 53.1 54.35 48.4 63.35 44.05 71.65 39.2 83.9 38.45 84.2 37.75 84.5 31.75 87 28.5 90.15 27.2 91.4 26.7 92.35 26.65 92.45 26.6 92.5 26.55 92.65 26.5 92.8 25.7 95.05 25.45 98.55 25.3 100.75 25.3 104.15 25.25 104.55 25.25 105.35 25.25 110.5 25.8 119.85 26.1 124.55 26.4 128.75 26.4 129.15 26.45 131.55 26.45 133.4 26.35 136.15 26.25 138.9 26.25 140.15 26.25 142.6 26.3 143.05 26.35 143.7 26.6 144.45 27.1 148.3 29.95 151.15 33.45 154.65 38.4 154.65 43.3 154.65 46.8 151.15 50.1 147.9 50.3 143.35
L 102.2 143.35 102.2 143.25 145.5 143.25 145.5 143.1
Q 145.55 143.2 145.55 143.25 145.75 147.8 149 151.1 152.5 154.55 157.45 154.55 162.35 154.55 165.85 151.1 168.7 148.2 169.2 144.4 169.45 143.65 169.5 142.95 169.55 142.5 169.55 140.05 169.55 138.8 169.45 136.05 169.35 133.3 169.35 131.45 169.4 129.05 169.4 128.65 169.75 124.45 170 119.75 170.55 110.4 170.55 105.25 170.55 104.45 170.5 104.05 170.55 100.7 170.35 98.45 170.1 94.95 169.3 92.7 169.25 92.55 169.2 92.45
M 102.2 58
L 102.2 57.9
Q 102.4 57.9 102.6 57.9 111.35 58.05 119.65 59.4 123.5 60 128.6 61.25 131.95 62.1 132.95 62.55 134.75 63.35 135.6 65.05 136.7 67.15 138.75 72.1 140.8 77 141.8 79.95 126.55 77.3 104.5 77.8 103.55 77.8 102.6 77.85 98.9 77.9 95.1 77.95
L 94.1 77.95
Q 93.65 77.95 93.25 77.95 92.25 77.9 91.3 77.9 69.3 77.35 54.05 80 55 77.1 57.05 72.15 59.15 67.2 60.2 65.1 61.1 63.45 62.9 62.65 63.85 62.2 67.25 61.35 72.3 60.1 76.15 59.5 84.45 58.15 93.25 58 95.15 58 97.1 58 99.75 58 102.2 58
M 149.75 93.5
Q 151.8 91.45 154.7 91.45 157.6 91.45 159.65 93.5 161.75 95.55 161.75 98.45 161.75 101.35 159.65 103.4 157.6 105.45 154.7 105.45 151.8 105.45 149.75 103.4 147.7 101.35 147.7 98.45 147.7 95.55 149.75 93.5
M 34.1 98.55
Q 34.1 95.65 36.15 93.6 38.2 91.55 41.1 91.55 44 91.55 46.05 93.6 48.1 95.65 48.1 98.55 48.1 101.45 46.05 103.5 44 105.55 41.1 105.55 38.2 105.55 36.15 103.5 34.1 101.45 34.1 98.55
M 79.35 118.75
Q 72.2 119.1 62.6 119.95 56.45 120.55 50.9 121.2 50.65 120.7 50.45 120.25
L 49.55 118.8
Q 49.6 118.75 49.7 118.75
L 49.75 118.75
Q 55.45 118.1 61.75 117.5 73.9 116.4 82.2 116.15
L 102.2 116.15 102.2 116.05 113.65 116.05
Q 121.95 116.3 134.1 117.45 140.4 118 146.1 118.65
L 146.15 118.65
Q 146.2 118.65 146.25 118.7
L 145.35 120.15
Q 145.15 120.6 144.9 121.1 139.35 120.45 133.2 119.9 123.65 119 116.45 118.65
L 116.4 118.65
Q 114.5 118.55 112.75 118.5
L 93.6 118.5 93.6 118.6 83.05 118.6
Q 81.3 118.65 79.4 118.75
L 79.35 118.75
M 63.4 122.25
Q 72.55 121.4 79.5 121.05 81.8 120.95 83.85 120.9
L 102.2 120.9 102.2 120.8 111.95 120.8
Q 114 120.85 116.35 121 123.3 121.35 132.4 122.2 138.3 122.75 143.7 123.35 143.5 123.65 143.4 123.95 143.2 124.35 142.9 124.9 142.65 125.3 142.4 125.55 137.5 125 132.15 124.5 132.05 124.5 131.95 124.45 119.8 123.35 111.5 123.1
L 93.6 123.1 93.6 123.15 84.35 123.15
Q 76.05 123.4 63.9 124.55 63.8 124.55 63.7 124.55 58.3 125.1 53.4 125.65 53.2 125.4 52.95 125 52.6 124.45 52.45 124 52.3 123.75 52.15 123.45 57.5 122.8 63.4 122.25
M 59.25 130.1
Q 57.3 129.3 55.75 128.05 59.7 127.65 63.95 127.25 64.05 127.25 64.15 127.25 76.15 126.1 84.4 125.85
L 102.2 125.85 102.2 125.8 111.4 125.8
Q 119.65 126.05 131.65 127.15 131.8 127.15 131.85 127.15 136.1 127.55 140.1 128 138.55 129.25 136.55 130 134.45 129.8 132.25 129.6 120.1 128.45 111.8 128.2
L 93.6 128.2 93.6 128.3 84 128.3
Q 75.7 128.55 63.55 129.65 61.4 129.9 59.25 130.1
M 65.8 131.3
L 67.35 131.5
Q 67.3 131.5 67.25 131.5 66.5 131.45 65.8 131.3
M 130.05 131.2
Q 129.3 131.35 128.6 131.45 128.5 131.45 128.45 131.45
L 130.05 131.2
M 176.2 71.1
L 169.85 71.1
Q 167.2 71.1 165.3 72.95 163.45 74.85 163.45 77.45 163.45 80.1 165.3 82 167.2 83.85 169.85 83.85
L 176.2 83.85
Q 178.85 83.85 180.75 82 182.6 80.1 182.6 77.45 182.6 74.85 180.75 72.95 178.85 71.1 176.2 71.1 Z"/>

<path fill="#FF00FF" stroke="none" d="
M 128.6 131.45
Q 129.3 131.35 130.05 131.2
L 128.45 131.45
Q 128.5 131.45 128.6 131.45
M 67.35 131.5
L 65.8 131.3
Q 66.5 131.45 67.25 131.5 67.3 131.5 67.35 131.5 Z"/>
</g>
</defs>

<g id="car">
<g transform="matrix( 1, 0, 0, 1, 0,0) ">
<use xlink:href="#Layer0_0_FILL"/>
</g>
</g>
</svg>
