
<svg xmlns="http://www.w3.org/2000/svg" version="1.1" xmlns:xlink="http://www.w3.org/1999/xlink" preserveAspectRatio="none" x="0px" y="0px" width="100px" height="100px" viewBox="0 0 100 100">
<defs>
<g id="Layer0_0_FILL">
<path fill="#000000" stroke="none" d="
M 53.05 7.55
Q 52.25 7.55 51.55 7.9 50.9 8.2 50.3 8.2 49.95 8.15 49.65 8.05
L 49.65 7.15
Q 49.65 6.75 49.35 6.45 49.1 6.2 48.7 6.2 48.3 6.2 48 6.45 47.75 6.75 47.75 7.15
L 47.75 17.1 49.65 17.1 49.65 12.85
Q 50.3 13.2 50.85 13.2 51.1 13.2 51.95 12.85 52.75 12.45 53.05 12.45 53.9 12.45 54.75 13.5
L 54.85 8.25
Q 54.7 8 54.25 7.8 53.75 7.55 53.05 7.55
M 47.4 89.7
Q 52.4 86.3 57.7 79.25
L 42 85.55 47.4 89.7
M 30.2 69.8
Q 31.45 71.85 32.7 73.75
L 69.5 59.55 73 52.75 30.2 69.8
M 25.7 61.2
L 27.9 65.55 63 52 48.8 52 25.7 61.2
M 21 52
L 23.55 57 36.55 52 21 52
M 35.5 77.85
Q 37.05 79.9 38.55 81.75
L 62.35 72.55
Q 63.85 70.15 65.4 67.5
L 66.45 65.5 35.5 77.85
M 75.8 47.5
Q 75.8 47.15 75.8 46.8
L 21.4 46.8
Q 21.4 47.15 21.4 47.5 21.4 48.25 21.45 49
L 75.8 49
Q 75.8 48.25 75.8 47.5
M 51.4 44.7
L 51.4 32.8 45.2 32.8 45.2 44.7 51.4 44.7
M 57.85 20.05
Q 57.35 19.85 56.85 19.7 52.95 18.4 48.6 18.4 43.85 18.4 39.7 19.95 33.95 22 29.35 26.9 22.35 34.45 21.5 44.7
L 42.2 44.7 42.2 29 54.2 29 54.2 44.7 75.7 44.7
Q 74.85 34.45 67.8 26.9 63.35 22.15 57.85 20.05
M 59.95 36.95
Q 59.05 36.05 59.05 34.7 59.05 33.35 59.95 32.4 60.9 31.5 62.25 31.5 63.6 31.5 64.5 32.4 65.45 33.35 65.45 34.7 65.45 36.05 64.5 36.95 63.6 37.9 62.25 37.9 60.9 37.9 59.95 36.95
M 38 34.6
Q 38 35.95 37.05 36.85 36.15 37.8 34.8 37.8 33.45 37.8 32.5 36.85 31.6 35.95 31.6 34.6 31.6 33.25 32.5 32.3 33.45 31.4 34.8 31.4 36.15 31.4 37.05 32.3 38 33.25 38 34.6 Z"/>
</g>
</defs>

<g id="base">
<g transform="matrix( 1, 0, 0, 1, 0,0) ">
<use xlink:href="#Layer0_0_FILL"/>
</g>
</g>
</svg>
