
<svg xmlns="http://www.w3.org/2000/svg" version="1.1" xmlns:xlink="http://www.w3.org/1999/xlink" preserveAspectRatio="none" x="0px" y="0px" width="200px" height="200px" viewBox="0 0 200 200">
<defs>
<g id="Layer0_0_FILL">
<path fill="#333333" stroke="none" d="
M 186.85 68.2
Q 187.7 67.85 190 67.5 190.85 67.35 190.85 65.95 190.85 62.5 186.6 62.5 182.4 62.5 179.45 67.35 178.05 69.7 177.45 72.25 173.15 73.2 170.65 75.55 170.45 75.05 170.2 74.55 164.15 60.95 145.95 49.9 138.35 45.25 129.4 41.6
L 122 38.9
Q 120.8 38.7 119.6 38.45 114.45 37.5 109.75 36.9 106.2 36.5 102.95 36.25 82.9 35 71.1 41.55 70.3 41.95 69.65 42.4 65.55 44.85 63.05 48.3 57.65 44.6 37 48.05
L 24.55 50.8 24.7 51.4
Q 26.35 56.95 33.65 62.45 37.3 65.15 40.65 66.8
L 41.05 67.2
Q 40.85 68.05 37.8 70.2 34.8 72.35 32.75 83.55 31.7 89.2 31.25 94.35 30.55 97.15 29.85 99.2 28.05 104.4 26.4 105.2 24.55 106.1 11.85 107.95 8.65 108.4 4.8 108.9
L 12.2 127.95
Q 22 134.2 37 127.85 39.8 126.65 42.3 125.4 46.1 134.55 52.8 139.7 55.7 141.9 58.2 142.9 58.05 144.7 57.55 150.05 57.45 151.15 57.3 152.1
L 72.15 152.1
Q 72.85 148.2 73.3 145.8 77.05 147.3 84.9 147.05 88.8 147 92.15 146.8 92.55 146.7 93 146.7 93 146.95 93 147 111.85 147 116.8 146.5 119.95 146.2 122.95 145.6 123.2 148.65 123.7 150.25 123.9 151.05 124.15 152
L 124.15 152.1 144.55 152.1
Q 144.85 151.7 145.2 151.25 145.9 150.2 146.75 149 147.4 148.05 148.1 147 151.35 142.25 154 138.45 154.65 137.45 155.3 136.6 157.9 132.85 159.85 130.2 163.9 125.25 165.8 122.8 169.15 118.55 170.85 114.8 173.7 108.3 173.85 98.35 173.85 95.5 173.7 92.4 173.9 91.45 173.9 89.9 173.9 88.2 173.7 86.25 173.5 84.35 173.5 82.7 173.5 82.2 173.5 81.8 173.65 81.55 173.8 81.45 175.4 79.6 177.1 79.3 177.7 82.8 179.75 86.1 183.1 91.55 188 91.55 192.5 91.55 194.55 89.55 196.55 87.6 196.55 83.55 196.55 71.85 184.35 71.6 184.65 71.1 185.25 70.2 186.2 68.5 186.85 68.2
M 189.7 85.55
Q 187.35 85.55 185.15 83.55 182.9 81.5 182.9 79 183.15 77.85 183.15 76.15 183.3 76.15 183.45 76.15 185 76.15 188.3 79.3 191.4 82.3 191.4 83.4 191.4 84.5 191.15 85 190.75 85.55 189.7 85.55
M 101.5 46.65
L 113.7 46.65
Q 121.95 48.15 130.3 51.9 139.9 56.2 139.9 59.5 139.9 62.6 135.75 62.6 133.1 62.6 128.6 59.8 122.95 56.25 119.95 55.25 116.75 54.2 112.9 53.7 112.05 53.55 110.1 53.4 109 53.35 107.65 53.25 103.6 53.55 102.3 53.7 98.45 54.2 95.25 55.25 92.25 56.25 86.6 59.8 82.1 62.6 79.45 62.6 75.3 62.6 75.3 59.5 75.3 56.2 84.9 51.9 93.25 48.15 101.5 46.65
M 55.2 95.3
Q 56.65 93.95 58.65 93.95 60.65 93.95 62 95.3 63.4 96.7 63.4 98.7 63.4 100.7 62 102.05 60.65 103.5 58.65 103.5 56.65 103.5 55.2 102.05 53.85 100.7 53.85 98.7 53.85 96.7 55.2 95.3
M 69.5 113.55
Q 69.6 113.55 69.75 113.55 70.15 112.95 71.2 112 71.6 111.75 71.85 111.65 72.3 111.45 72.65 111.45 74.9 111.45 76.75 112.6 79.35 114.2 79.35 117.4 79.35 121.6 73.65 124.8 68.15 127.95 61.55 127.95 55.45 127.95 47.6 122.1 46.85 121.45 46.05 120.85 36.95 113.35 36.95 106.6 36.95 104.55 37 103.85 37.15 102.75 37.5 101.9 37.8 101.05 38.35 100.35
L 38.65 100.65
Q 38.1 104.95 44.6 109.3 51.6 114 61 114 65.2 114 68.25 113.7 68.9 113.65 69.5 113.55
M 11.05 111.15
Q 11.35 110.85 11.85 110.75 12.25 110.6 12.7 110.65 13 110.75 13.25 110.85 14.05 111.3 14.25 112
L 16.45 119.6
Q 16.65 120.35 16.3 121.05 15.95 121.75 15.2 121.95 14.4 122.2 13.75 121.8 13 121.4 12.75 120.7
L 10.55 113.1
Q 10.5 112.85 10.5 112.6 10.5 112.15 10.7 111.65 10.85 111.35 11.05 111.15 Z"/>
</g>
</defs>

<g id="pig">
<g transform="matrix( 1, 0, 0, 1, 0,0) ">
<use xlink:href="#Layer0_0_FILL"/>
</g>
</g>
</svg>
