
<svg xmlns="http://www.w3.org/2000/svg" version="1.1" xmlns:xlink="http://www.w3.org/1999/xlink" preserveAspectRatio="none" x="0px" y="0px" width="200px" height="200px" viewBox="0 0 200 200">
<defs>
<g id="Layer0_0_FILL">
<path fill="#333333" stroke="none" d="
M 163.8 14.35
Q 164.55 9.15 162.15 7.75 160.9 6.9 159.2 7.55 157.65 8.15 156.7 9.55 155.55 11.3 155.1 15.65 154.1 24.5 150.45 28.4 148.4 30.45 144.8 32.3 141.6 34.05 134.05 37.65 127.1 40.95 123.4 43.05 111.1 49.95 105.15 58.2 98.75 67.05 97.4 79.85 92 81.1 83.95 77.75 79.65 75.85 77.45 75 73.7 73.5 70.75 73.1 65.05 72.35 59.05 74.8 53.55 77.05 48.95 81.45 45.15 85.2 41.4 90.8 39.3 94 35.25 101.2 30.75 109.45 29.1 113.85 27.65 117.85 26.65 123.1 26.1 126.4 25.35 132.5 24.5 139.5 24.5 143.8 24.6 150.1 26.15 154.95 28.75 162.9 35.15 167.35 38.45 169.55 42.3 170.35 46.25 171.15 49.95 170.25 53.5 169.35 57.55 166.6 61.35 164 67.1 158.8 73.75 152.7 76.35 150.65 81.75 146.55 87.2 144.7 90.05 143.75 92.75 143.45 92.8 143.4 92.9 143.35 92.95 143.35 95.3 142.85
L 97.25 142.45
Q 97.95 142.3 99.35 142.3
L 106.3 142.3
Q 106.3470703125 142.3 106.4 142.3 106.44765625 142.3001953125 106.5 142.3
L 107 142.3
Q 107.74765625 142.346484375 108.3 142.45
L 108.3 142.4
Q 108.866015625 142.4787109375 109.25 142.6 109.45 142.65 109.75 142.8 111.9 143.1 114.15 143.9 119.6 145.75 125 149.85 127.65 151.9 134.3 158 140.05 163.2 143.85 165.75 147.9 168.55 151.45 169.4 155.15 170.35 159.1 169.55 162.95 168.75 166.25 166.5 172.6 162.1 175.25 154.15 176.8 149.3 176.85 143 176.85 138.7 176.05 131.7 175.3 125.6 174.7 122.3 173.75 117.05 172.25 113.05 170.65 108.65 166.1 100.4 162.05 93.2 159.95 90 156.25 84.35 152.4 80.65 147.85 76.25 142.3 74 136.35 71.55 130.65 72.3 127.7 72.7 123.9 74.2 121.7 75 117.4 76.95 110.9330078125 79.634375 106.15 79.35 106.0201171875 79.21015625 105.8 79.1 106.25 75.3 107.55 71.6 109.8 65.1 114.2 60.1 119.85 53.85 131.05 48.2 137.3 45.1 150 38.9 154.15 36.6 156.6 34 159.85 30.5 161.6 24.85 162.8 21.15 163.8 14.35
M 133.8 98.55
Q 135.35 97.5 137.1 97.55 139.2 97.65 140.8 99.15 142.45 100.7 142.65 102.7 142.85 104.45 141.95 106.1 141.5 106.9 140.9 107.55 140.3 108.1 139.45 108.45 137.9 109.2 136.1 109 134.3 108.7 132.95 107.55 131.7 106.35 131.35 104.55 130.95 102.75 131.6 101.15 132.2 99.5 133.8 98.55
M 65.45 97.1
Q 65.45 97.05 65.45 96.95 66.1 97.1 66.75 97.2 67.1 97.35 67.4 97.55 67.7 97.7 68 97.9 68.2 98.05 68.35 98.25 68.45 98.4 68.6 98.6 68.7 98.75 68.8 98.95 68.95 99.1 69.05 99.3 69.1 99.45 69.15 99.65 69.2 99.8 69.3 100 69.35 100.15 69.4 100.35 69.4 100.5 69.4 100.7 69.4 100.85 69.4 101.05 69.45 101.2 69.5 101.4 69.5 101.55 69.5 101.75 69.5 101.9 69.5 102.1 69.5 102.25 69.5 102.45 69.5 102.6 69.5 102.75 69.5 102.95 69.5 103.1 69.5 103.3 69.5 103.45 69.5 103.65 69.5 103.8 69.5 104 69.5 104.15 69.5 104.35 69.5 104.5 69.5 104.7 69.5 104.85 69.5 105.05 69.5 105.2 69.5 105.4 69.5 105.55 69.5 105.75 69.5 105.9 69.5 106.1 69.5 106.25 69.5 106.45 69.5 106.6 69.5 106.8 69.5 106.95 69.5 107.15 69.5 107.3 69.5 107.5 69.5 107.65 69.5 107.85 69.5 108 69.5 108.15 69.5 108.35 69.5 108.5 69.5 108.7 69.5 108.85 69.5 109.05 69.5 109.2 69.5 109.4 69.5 109.55 69.5 109.75 73.05 109.75 76.6 109.75 77.25 109.85 77.85 109.95 78.2 110.15 78.55 110.3 78.85 110.5 79.15 110.65 79.35 110.85 79.5 111 79.6 111.2 79.75 111.35 79.85 111.55 79.95 111.7 80.1 111.9 80.2 112.05 80.25 112.25 80.3 112.4 80.35 112.6 80.45 112.75 80.5 112.95 80.55 113.1 80.55 113.3 80.55 113.45 80.55 113.65 80.55 113.8 80.55 114 80.55 114.15 80.55 114.35 80.55 114.5 80.5 114.7 80.45 114.85 80.35 115 80.3 115.2 80.25 115.35 80.2 115.55 80.1 115.7 79.95 115.9 79.85 116.05 79.75 116.25 79.6 116.4 79.5 116.6 79.35 116.75 79.15 116.95 78.85 117.1 78.55 117.3 78.2 117.45 77.85 117.65 77.25 117.75 76.6 117.85 73.05 117.85 69.5 117.85 69.5 118 69.5 118.1 69.5 118.3 69.5 118.45 69.5 118.6 69.5 118.8 69.5 118.95 69.5 119.15 69.5 119.3 69.5 119.5 69.5 119.65 69.5 119.85 69.5 120 69.5 120.2 69.5 120.35 69.5 120.55 69.5 120.7 69.5 120.9 69.5 121.05 69.5 121.25 69.5 121.4 69.5 121.6 69.5 121.75 69.5 121.95 69.5 122.1 69.5 122.3 69.5 122.45 69.5 122.65 69.5 122.8 69.5 123 69.5 123.15 69.5 123.35 69.5 123.5 69.5 123.65 69.5 123.85 69.5 124 69.5 124.2 69.5 124.35 69.5 124.55 69.5 124.7 69.5 124.9 69.5 125.05 69.5 125.25 69.5 125.4 69.5 125.6 69.5 125.75 69.5 125.95 69.5 126.1 69.5 126.3 69.5 126.45 69.5 126.65 69.5 126.8 69.5 127 69.5 127.15 69.5 127.35 69.5 127.5 69.5 127.7 69.5 127.85 69.45 128.05 69.4 128.2 69.4 128.4 69.4 128.55 69.35 128.75 69.3 128.9 69.2 129.05 69.15 129.25 69.1 129.4 69.05 129.6 69 129.75 68.95 129.95 68.8 130.1 68.7 130.3 68.6 130.45 68.45 130.65 68.3 130.8 68.1 131 67.9 131.15 67.65 131.35 67.3 131.5 66.95 131.7 66.65 131.8 66.4 131.9 65.9 132 65.45 132.05 64.8 131.9 64.15 131.8 63.75 131.65 63.35 131.45 63.15 131.3 62.9 131.1 62.7 130.95 62.55 130.75 62.35 130.6 62.2 130.4 62.1 130.25 61.95 130.05 61.85 129.9 61.75 129.7 61.7 129.55 61.6 129.35 61.55 129.2 61.5 129 61.5 128.85 61.5 128.65 61.5 128.5 61.5 128.3 61.45 128.15 61.4 127.95 61.4 127.8 61.4 127.6 61.4 127.45 61.4 127.25 61.4 127.1 61.4 126.95 61.4 126.75 61.4 126.6 61.4 126.4 61.4 126.25 61.4 126.05 61.4 125.9 61.4 125.7 61.4 125.55 61.4 125.35 61.4 125.2 61.4 125 61.4 124.85 61.4 124.65 61.4 124.5 61.4 124.3 61.4 124.15 61.4 123.95 61.4 123.8 61.4 123.6 61.4 123.45 61.4 123.25 61.4 123.1 61.4 122.9 61.4 122.75 61.4 122.55 61.4 122.4 61.4 122.2 61.4 122.05 61.4 121.85 61.4 121.7 61.4 121.55 61.4 121.35 61.4 121.2 61.4 121 61.4 120.85 61.4 120.65 61.4 120.5 61.4 120.3 61.4 120.15 61.4 119.95 61.4 119.8 61.4 119.6 61.4 119.45 61.4 119.25 61.4 119.1 61.4 118.9
L 61.4 118.55
Q 61.4 118.4 61.4 118.2 61.4 118.05 61.4 117.85 57.9 117.85 54.4 117.85 53.8 117.75 53.15 117.65 52.75 117.45 52.35 117.3 52.1 117.1 51.85 116.95 51.7 116.75 51.5 116.6 51.35 116.4 51.15 116.25 51.05 116.05 50.95 115.9 50.8 115.7 50.7 115.55 50.65 115.35 50.6 115.2 50.55 115 50.45 114.85 50.4 114.7 50.35 114.5 50.35 114.35 50.35 114.15 50.35 114 50.35 113.8 50.3 113.65 50.25 113.45 50.3 113.3 50.35 113.1 50.35 112.95 50.35 112.75 50.4 112.6 50.45 112.4 50.55 112.25 50.6 112.05 50.65 111.9 50.7 111.7 50.8 111.55 50.95 111.35 51.05 111.2 51.15 111 51.35 110.85 51.5 110.65 51.7 110.5 51.85 110.3 52.15 110.15 52.45 109.95 52.75 109.85 53.05 109.75 53.2 109.7 53.35 109.6 53.85 109.6 54.3 109.6 54.3 109.55 54.3 109.5 54.75 109.55 55.25 109.6 58.3 109.6 61.4 109.7 61.4 109.55 61.4 109.5 61.4 109.35 61.4 109.15 61.4 109 61.4 108.8
L 61.4 108.45
Q 61.4 108.3 61.4 108.1 61.4 107.95 61.4 107.75 61.4 107.6 61.4 107.4 61.4 107.25 61.4 107.05 61.4 106.9 61.4 106.7 61.4 106.55 61.4 106.35 61.4 106.2 61.4 106.05 61.4 105.85 61.4 105.7 61.4 105.5 61.4 105.35 61.4 105.15 61.4 105 61.4 104.8 61.4 104.65 61.4 104.45 61.4 104.3 61.4 104.1 61.4 103.95 61.4 103.75 61.4 103.6 61.4 103.4 61.4 103.25 61.4 103.05 61.4 102.9 61.4 102.7 61.4 102.55 61.4 102.35 61.4 102.2 61.4 102 61.4 101.85 61.4 101.65 61.4 101.5 61.4 101.3 61.4 101.15 61.45 100.95 61.5 100.8 61.5 100.65 61.5 100.45 61.5 100.3 61.5 100.1 61.55 99.95 61.6 99.75 61.7 99.6 61.75 99.4 61.8 99.25 61.85 99.05 61.95 98.9 62.1 98.7 62.25 98.55 62.45 98.35 62.6 98.2 62.8 98 62.95 97.85 63.15 97.65 63.5 97.5 63.8 97.3 64.15 97.2 64.5 97.1 65 97.1 65.45 97.1
M 146.95 110.9
Q 147.25 110.75 147.5 110.6 148.8 109.85 150.25 109.9 152.35 110.05 154 111.55 155.6 113.05 155.85 115.1 156 116.8 155.15 118.45 154.7 119.25 154.1 119.9 153.45 120.5 152.65 120.85 151.8 121.25 150.85 121.35 150.1 121.45 149.3 121.35 147.5 121.05 146.15 119.9 144.85 118.75 144.5 116.95 144.1 115.15 144.75 113.5 145.4 111.9 146.95 110.9
M 127.4 121.45
Q 125.85 122.2 124.05 122 122.25 121.7 120.9 120.55 119.6 119.4 119.25 117.6 118.85 115.8 119.5 114.15 120.15 112.55 121.7 111.55 123.25 110.5 125 110.55 127.1 110.65 128.75 112.2 130.35 113.7 130.6 115.7 130.75 117.45 129.9 119.1 129.45 119.9 128.85 120.55 128.2 121.1 127.4 121.45
M 140.35 122.35
Q 141.1 122.7 141.7 123.2 142.3 123.65 142.8 124.35 143.75 125.7 143.95 127.25 144.1 128.85 143.5 130.35 142.8 131.85 141.5 132.75 139.75 133.9 137.3 133.7 134.6 133.55 132.95 131.8 131.7 130.4 131.6 128.3 131.5 126.7 132.2 125.25 132.55 124.5 133.15 123.9 133.6 123.35 134.3 122.85 135.6 121.95 137.25 121.8 138.9 121.7 140.35 122.35 Z"/>
</g>
</defs>

<g id="entertainment_">
<g transform="matrix( 1, 0, 0, 1, 0,0) ">
<use xlink:href="#Layer0_0_FILL"/>
</g>
</g>
</svg>
