
<svg xmlns="http://www.w3.org/2000/svg" version="1.1" xmlns:xlink="http://www.w3.org/1999/xlink" preserveAspectRatio="none" x="0px" y="0px" width="200px" height="200px" viewBox="0 0 200 200">
<defs>
<g id="Layer0_0_FILL">
<path fill="#000000" stroke="none" d="
M 146.6 165.05
Q 143 162.9 139.8 162.1 132.15 160.1 125.5 165.55 130.15 172.25 138.15 172.6 144 172.9 153.15 169.55 149.35 166.65 146.6 165.05
M 102.95 171.55
Q 104.05 170.45 104.05 168.95 104.05 167.4 102.95 166.3 101.9 165.25 100.35 165.25 98.85 165.25 97.75 166.3 96.65 167.4 96.65 168.95 96.65 170.45 97.75 171.55 98.85 172.6 100.35 172.6 101.9 172.6 102.95 171.55
M 121.35 169.05
Q 113.85 166.45 106.8 171.3 110.85 178.35 118.75 179.4 124.6 180.15 134 177.6 130.45 174.4 127.85 172.55 124.4 170.15 121.35 169.05
M 116.2 152.05
Q 109.65 156.5 109.3 165.1 117.4 166 122.95 160.3 127.05 156.1 130.6 147 125.95 147.95 122.9 148.95 118.9 150.25 116.2 152.05
M 149.45 129.1
Q 147.8 133 147.45 136.25 146.55 144.1 152.85 149.9 158.85 144.4 158.1 136.45 157.55 130.6 152.95 122 150.65 126.15 149.45 129.1
M 138.05 138.7
Q 135.25 141.9 133.9 144.85 130.5 152 134.65 159.55 142.05 156.2 143.9 148.4 145.25 142.7 143.65 133.1 140.1 136.3 138.05 138.7
M 70.2 147.2
Q 73.75 156.3 77.85 160.5 83.4 166.2 91.45 165.25 91.15 156.7 84.6 152.25 81.9 150.45 77.9 149.1 74.85 148.15 70.2 147.2
M 62.65 172.8
Q 70.65 172.45 75.25 165.75 68.6 160.3 60.95 162.25 57.8 163.1 54.2 165.25 51.45 166.85 47.65 169.75 56.8 173.1 62.65 172.8
M 79.45 169.25
Q 76.4 170.3 72.95 172.75 70.35 174.6 66.8 177.8 76.2 180.35 82 179.6 89.95 178.55 94 171.5 86.9 166.6 79.45 169.25
M 38 153.15
Q 34.95 153.95 30.5 155.7 38.4 161.4 44.1 162.75 51.85 164.6 58.15 159.45 53.25 152.4 45.35 152.2 42.1 152.1 38 153.15
M 31.75 139.5
Q 28.6 138.8 24.4 139.05 21.2 139.25 16.5 140.1 23.15 147.2 28.5 149.65 35.8 152.9 42.95 149.05 39.5 141.15 31.75 139.5
M 14.3 122.85
Q 11.1 122.45 6.35 122.4 11.55 130.65 16.35 134 22.85 138.6 30.6 136.2 28.7 127.8 21.45 124.65 18.45 123.4 14.3 122.85
M 3.05 104.9
Q 7.2 113.7 11.55 117.6 17.5 122.95 25.5 121.45 24.6 112.9 17.75 108.95 14.95 107.3 10.85 106.3 7.75 105.5 3.05 104.9
M 27.4 117.9
Q 35.2 114.25 36.65 106.45 37.25 103.25 36.85 99.05 36.55 95.9 35.6 91.2 28.65 98.1 26.4 103.5 23.35 110.85 27.4 117.9
M 42.25 125.35
Q 42.5 122.1 41.65 117.95 41 114.85 39.45 110.3 33.35 117.9 31.75 123.55 29.55 131.25 34.4 137.75 41.7 133.2 42.25 125.35
M 66.9 145
Q 65.55 142.05 62.75 138.9 60.65 136.5 57.15 133.3 55.55 142.9 56.9 148.6 58.7 156.35 66.15 159.7 70.3 152.15 66.9 145
M 53.35 136.4
Q 53 133.2 51.35 129.3 50.15 126.35 47.8 122.2 43.25 130.8 42.7 136.65 41.95 144.6 47.9 150.1 54.25 144.3 53.35 136.4
M 22.55 97.15
Q 30.95 95.25 34.15 88.05 35.45 85.05 36 80.85 36.4 77.7 36.5 72.95 28.2 78.05 24.8 82.85 20.2 89.35 22.55 97.15
M 12.4 86.85
Q 9.8 84.95 5.7 82.6 6.15 92.3 8.7 97.6 12.15 104.8 20.15 106.5 22.55 98.2 17.75 91.95 15.75 89.4 12.4 86.85
M 18.85 65.75
Q 17.1 63.05 14.1 59.4 11.15 68.7 11.7 74.55 12.4 82.5 19.25 86.85 24.45 79.95 22.1 72.4 21.15 69.25 18.85 65.75
M 33.4 59.95
Q 27.2 65 27.45 73.1 36.05 73.55 41 67.4 43.05 64.85 44.7 60.95 45.95 58.05 47.3 53.45 37.95 56.25 33.4 59.95
M 28.8 45.25
Q 27.65 42.25 25.4 38.05 20.65 46.55 19.95 52.4 19.05 60.3 24.9 65.95 31.35 60.3 30.6 52.4 30.3 49.15 28.8 45.25
M 45.9 47.8
Q 47.65 45.1 48.9 41.05 49.8 38 50.65 33.3 41.65 37.05 37.55 41.25 31.9 46.9 33.05 54.95 41.6 54.5 45.9 47.8
M 170.3 155.5
Q 165.85 153.8 162.75 153 158.7 151.9 155.45 152 147.5 152.2 142.65 159.3 148.95 164.4 156.7 162.6 162.4 161.25 170.3 155.5
M 166.4 137.6
Q 171.25 131.05 169.05 123.35 167.4 117.7 161.3 110.1 159.8 114.65 159.15 117.75 158.3 121.9 158.55 125.15 159.1 133.05 166.4 137.6
M 176.4 138.85
Q 172.2 138.6 169.05 139.3 161.3 141 157.85 148.85 165 152.7 172.3 149.45 177.6 147 184.3 139.9 179.6 139.05 176.4 138.85
M 194.45 122.2
Q 189.65 122.25 186.5 122.65 182.3 123.2 179.35 124.5 172.05 127.6 170.15 136 177.95 138.45 184.45 133.85 189.25 130.45 194.45 122.2
M 197.75 104.7
Q 193.05 105.35 189.95 106.1 185.85 107.15 183.05 108.75 176.2 112.75 175.3 121.3 183.3 122.75 189.25 117.45 193.6 113.5 197.75 104.7
M 167.75 54.8
Q 168.85 46.75 163.25 41.05 159.15 36.9 150.15 33.1 151 37.8 151.9 40.85 153.15 44.9 154.9 47.65 159.15 54.3 167.75 54.8
M 192.05 97.45
Q 194.6 92.15 195.1 82.4 190.95 84.8 188.4 86.7 185.05 89.2 183.05 91.75 178.25 98.05 180.65 106.3 188.6 104.65 192.05 97.45
M 165.2 91.05
Q 164.2 95.7 163.95 98.85 163.55 103.05 164.15 106.3 165.6 114.05 173.4 117.7 177.45 110.7 174.35 103.3 172.15 97.9 165.2 91.05
M 164.8 80.7
Q 165.35 84.85 166.65 87.85 169.8 95.1 178.2 96.95 180.6 89.15 175.95 82.65 172.55 77.9 164.3 72.75 164.35 77.5 164.8 80.7
M 181.95 65.55
Q 179.65 69.1 178.7 72.2 176.35 79.75 181.5 86.65 188.4 82.3 189.1 74.35 189.65 68.5 186.7 59.2 183.65 62.9 181.95 65.55
M 173.35 72.9
Q 173.55 64.8 167.4 59.75 162.85 56.05 153.5 53.3 154.85 57.85 156.05 60.8 157.7 64.65 159.75 67.2 164.75 73.35 173.35 72.9
M 175.4 37.85
Q 173.15 42.1 172 45.05 170.45 48.95 170.15 52.2 169.4 60.1 175.9 65.8 181.75 60.15 180.8 52.2 180.15 46.4 175.4 37.85
M 99.95 79.15
Q 98.3 79.15 96.75 79.85 95.45 80.5 94.45 81.75 93.7 82.75 92.95 84.45
L 90.6 88.7 87.85 83.2
Q 86.7 80.95 84.35 79.8 82.85 79.1 81.2 79.1
L 63.35 79.1
Q 61.5 79.1 59.85 80 58.1 80.95 57.1 82.65 56.05 84.4 56.05 86.4
L 56.05 88.3 54.35 88.3
Q 51.35 88.3 49.25 90.4 47.1 92.55 47.1 95.6 47.1 98.6 49.25 100.7 51.35 102.85 54.35 102.85
L 56.05 102.85 56.05 104.55
Q 56.05 107.55 58.2 109.7 60.35 111.85 63.35 111.85 66.35 111.85 68.5 109.7 70.65 107.55 70.65 104.55
L 70.65 102.85 77.1 102.85
Q 79.15 102.85 80.95 101.8
L 83.8 107.4
Q 84 107.9 84.3 108.3 85.25 109.95 86.95 110.85 88.6 111.8 90.5 111.8 92.2 111.8 93.65 111.05 95 110.45 96.1 109.4 97.2 108.3 97.75 106.95
L 99.85 102.3 102.4 107.4
Q 102.6 107.85 102.9 108.3 103.9 109.9 105.55 110.85 107.25 111.8 109.15 111.8 110.85 111.8 112.3 111.05 113.55 110.5 114.5 109.45 115.4 108.45 115.9 107.15 116.75 109.2 118.55 110.45 120.4 111.7 122.65 111.7
L 141 111.7
Q 144 111.7 146.15 109.65 148.25 107.55 148.25 104.55
L 148.25 102.85 149.95 102.85
Q 153 102.85 155.1 100.7 157.25 98.6 157.25 95.6 157.25 92.55 155.1 90.4 153 88.3 149.95 88.3
L 148.25 88.3 148.25 86.4
Q 148.25 84.4 147.25 82.65 146.2 80.95 144.45 80 142.85 79.1 141 79.1
L 118.9 79.1
Q 116.4 79.1 114.45 80.6 113.2 81.5 112.35 82.95
L 112.35 83 112.3 83.05 109.25 88.7
Q 108.35 86.95 107.35 85.15 105.35 81.45 104.7 80.95 102.6 79.15 99.95 79.15
M 97.6 86
Q 98 85.15 98.05 85 98.15 84.85 98.3 84.75 98.55 84.45 98.9 84.3 99.4 84.05 99.95 84.05 100.35 84.05 100.75 84.2 101.15 84.35 101.55 84.65 101.7 84.8 101.85 84.95
L 101.85 84.95
Q 101.9625 85.0625 102.05 85.15 102.25 85.4 102.45 85.8
L 105.8 92.6 109.15 99.25 116.6 85.35
Q 116.9 84.85 117.4 84.55 118.05 84 118.9 84
L 141 84
Q 141.6 84 142.15 84.3 142.7 84.6 143.05 85.15 143.4 85.7 143.4 86.4
L 143.4 93.2 149.95 93.2
Q 150.95 93.2 151.65 93.9 152.35 94.6 152.35 95.6 152.35 96.55 151.65 97.25 150.95 97.95 149.95 97.95
L 143.4 97.95 143.4 104.4
Q 143.4 105.4 142.7 106.1 142 106.8 141 106.8
L 122.65 106.8
Q 121.65 106.8 121 106.1 120.25 105.4 120.25 104.4
L 120.25 95.45 120.3 95.45
Q 120.3 94.5 121 93.85 121.7 93.2 122.65 93.2
L 138.6 93.2 138.6 88.75 120.2 88.75 111.5 104.95
Q 111.4 105.5 111.05 105.95 110.7 106.45 110.15 106.65
L 109.95 106.75
Q 109.55 106.9 109.15 106.9 108.85 106.9 108.55 106.85 108.5 106.8 108.45 106.8 108.2 106.75 107.95 106.6 107.4 106.3 107.1 105.7 106.95 105.5 106.85 105.3
L 99.95 91.8 96.45 98.4 93 105
Q 92.45 106.25 91.55 106.65 91.05 106.9 90.5 106.9 90.2 106.9 89.9 106.85 89.85 106.8 89.8 106.8 89.55 106.75 89.3 106.6 88.75 106.3 88.45 105.7 88.3 105.5 88.2 105.3
L 79.8 88.75 65.75 88.75 65.75 93.2 77.1 93.2
Q 78.1 93.2 78.8 93.9 79.5 94.6 79.5 95.6 79.5 96.55 78.8 97.25 78.1 97.95 77.1 97.95
L 65.75 97.95 65.75 104.55
Q 65.75 105.55 65.05 106.25 64.35 106.95 63.35 106.95 62.35 106.95 61.65 106.25 60.95 105.55 60.95 104.55
L 60.95 97.95 54.35 97.95
Q 53.4 97.95 52.7 97.25 52 96.55 52 95.6 52 94.6 52.7 93.9 53.4 93.2 54.35 93.2
L 60.95 93.2 60.95 86.4
Q 60.95 85.7 61.3 85.15 61.65 84.6 62.2 84.3 62.75 84 63.35 84
L 81.2 84
Q 81.8 84 82.25 84.25 83.05 84.6 83.45 85.4
L 90.5 99.25 96.55 88 97.55 86.05
Q 97.55 86 97.6 86
M 138.6 97.95
L 124.95 97.95 124.95 102 138.6 102 138.6 97.95 Z"/>

<path fill="#FFFFFF" stroke="none" d="
M 98.05 85
Q 98 85.15 97.6 86 97.55 86.05 97.55 86.15
L 96.55 88 90.5 99.25 83.45 85.4
Q 83.05 84.6 82.25 84.25 81.8 84 81.2 84
L 63.35 84
Q 62.75 84 62.2 84.3 61.65 84.6 61.3 85.15 60.95 85.7 60.95 86.4
L 60.95 93.2 54.35 93.2
Q 53.4 93.2 52.7 93.9 52 94.6 52 95.6 52 96.55 52.7 97.25 53.4 97.95 54.35 97.95
L 60.95 97.95 60.95 104.55
Q 60.95 105.55 61.65 106.25 62.35 106.95 63.35 106.95 64.35 106.95 65.05 106.25 65.75 105.55 65.75 104.55
L 65.75 97.95 77.1 97.95
Q 78.1 97.95 78.8 97.25 79.5 96.55 79.5 95.6 79.5 94.6 78.8 93.9 78.1 93.2 77.1 93.2
L 65.75 93.2 65.75 88.75 79.8 88.75 88.2 105.3
Q 88.3 105.5 88.45 105.7 88.9 106.5 89.8 106.8 89.85 106.8 89.9 106.85 90.2 106.9 90.5 106.9 91.05 106.9 91.55 106.65 92.6 106.15 92.85 104.95
L 96.45 98.4 99.95 91.8 106.85 105.3
Q 106.95 105.5 107.1 105.7 107.55 106.5 108.45 106.8 108.5 106.8 108.55 106.85 108.85 106.9 109.15 106.9 109.55 106.9 109.95 106.75
L 110.15 106.65
Q 110.7 106.45 111.05 105.95 111.4 105.5 111.5 104.95
L 120.2 88.75 138.6 88.75 138.6 93.2 122.65 93.2
Q 121.7 93.2 121 93.85 120.3 94.5 120.3 95.45
L 120.25 95.45 120.25 104.4
Q 120.25 105.4 121 106.1 121.65 106.8 122.65 106.8
L 141 106.8
Q 142 106.8 142.7 106.1 143.4 105.4 143.4 104.4
L 143.4 97.95 149.95 97.95
Q 150.95 97.95 151.65 97.25 152.35 96.55 152.35 95.6 152.35 94.6 151.65 93.9 150.95 93.2 149.95 93.2
L 143.4 93.2 143.4 86.4
Q 143.4 85.7 143.05 85.15 142.7 84.6 142.15 84.3 141.6 84 141 84
L 118.9 84
Q 118.05 84 117.4 84.55 116.9 84.85 116.6 85.35
L 109.15 99.25 105.8 92.6 102.4 86
Q 102.2546875 85.3703125 101.85 84.95
L 101.85 84.95
Q 101.7 84.8 101.55 84.65 101.15 84.35 100.75 84.2 100.35 84.05 99.95 84.05 99.4 84.05 98.9 84.3 98.55 84.45 98.3 84.75 98.15 84.85 98.05 85
M 124.95 97.95
L 138.6 97.95 138.6 102 124.95 102 124.95 97.95 Z"/>
</g>
</defs>

<g id="fwa">
<g transform="matrix( 1, 0, 0, 1, 0,0) ">
<use xlink:href="#Layer0_0_FILL"/>
</g>
</g>
</svg>
