
<svg xmlns="http://www.w3.org/2000/svg" version="1.1" xmlns:xlink="http://www.w3.org/1999/xlink" preserveAspectRatio="none" x="0px" y="0px" width="200px" height="200px" viewBox="0 0 200 200">
<defs>
<radialGradient id="Gradient_1" gradientUnits="userSpaceOnUse" cx="0" cy="0" r="153.2875" fx="0" fy="0" gradientTransform="matrix( 1, 0, 0, 0.9995107233140341, 80.65,54.9) " spreadMethod="pad">
<stop  offset="0%" stop-color="#9EDBF3"/>

<stop  offset="0%" stop-color="#94CCE2"/>
</radialGradient>

<g id="Layer0_0_FILL">
<path fill="#FF00FF" stroke="none" d="
M 166.25 52.95
Q 166.05 52.75 165.85 52.45 163.25 49.95 159.25 47.4 149.3 41.3 140.4 40.75 137.85 40.75 137 41.1 131.2 41 127.7 41.7 112.5 43.35 96.7 55.45 90.6 60.4 84.95 66.3 81.3 70 79.85 72.1 70.25 85.1 55.5 97.6 51.65 100.8 46.4 104.95 45.15 105.75 44.4 106.5 39.55 108.95 35 110.85 27.8 113.6 23.85 113.4 15.6 113.1 11.05 110.95 13.85 112.7 16.65 113.95 17.85 114.45 19.2 114.95 21.5 116.4 25.4 117.85 30.45 119.6 33.55 119.7 33.7 119.7 33.8 119.7 34.4 119.8 35 119.8 53.85 120.65 67.55 112.05 72.55 109.1 75.75 105.45 76.45 104.65 77.8 103.4 79.55 101.85 80.3 100.8 85.35 93.25 88.15 89.65 91.45 85.4 92.7 83.95 95.35 80.65 97.55 78.6 97.95 78.3 98.25 77.95 98.8 77.55 99.4 77.25 100.55 76.55 102.2 75.6 103.1 74.85 103.85 74.35 103.95 74.35 104.15 74.25
L 104.15 74.15
Q 106.75 72.9 109.5 71.35 109.65 71.35 109.75 71.25 110.25 71.05 110.65 70.95 115.1 70 121.4 69.5
L 121.4 69.4 131.1 69.8
Q 146.5 74.35 152.8 83.15 154.35 85.4 155.3 87.8 155.9 88.5 156.65 89.95 156.75 90.25 157.25 92.15 157.55 93.25 157.55 94 157.7 95.35 158 98 158.1 100.3 158 101.95 157.9 104 156.65 108.05 154.8 113.95 151.6 118.7 141.95 133.15 123.7 132.45 116.75 132 112.4 128.2 109.65 126.45 108.1 123.95 106.65 121.6 106.3 118.4 106.3 117.85 106.3 117.45 106.3 117.25 106.3 117.15 106.2 116.3 106.3 115.5 106.4 110.85 108.9 108.85 108.8 109.1 108.6 109.3 108.2 111.05 108.2 111.45 108.1 111.95 108.2 113.2 108.4 114.55 108.4 114.75 108.5 114.95 108.6 115.6 108.6 117.25 109.2 118.5 109.85 119.95 111.3 122 112.75 123.95 113.85 124.8 114.5 125.3 115.6 125.9 118.2 127.25 121.7 127.35
L 122.15 127.35
Q 122.25 127.35 122.35 127.35 124.7 127.45 126.25 127.35 126.7 127.35 127 127.45
L 127.1 127.45
Q 138.55 126.65 144.15 118.7 148.05 113.3 148.25 106.9 148.7 99.05 145.6 92.45 141.55 83.85 132.65 78.8 118 74.05 104.25 83.15 99.4 86.35 96.1 90.35
L 96 90.5
Q 94.25 92.15 91.45 94.6 90.9 95 90.3 95.65 89.8 97 89.15 98.45 87.1 103.6 86.9 107.85 86.8 111.45 87.2 114.75 87.8 127.45 94.95 135.65 104.75 146.8 125.45 147.6 143.85 148.45 154.8 141.95
L 154.9 141.95
Q 160.05 139.45 164.3 136.05 169.35 131.9 172.25 126.85 172.85 125.7 173.3 124.8 174.4 122.6 175.55 119.95 178.85 112.3 180 104.3 180.4 93.25 179.9 88.6 179.25 83.95 175.75 70.55 174.3 65.25 172.85 62.05 170.8 57.8 167.2 53.8 166.75 53.4 166.25 52.95 Z"/>

<path fill="url(#Gradient_1)" stroke="none" d="
M 110.25 150.3
Q 110.55 150.5 110.85 150.5
L 110.75 150.4
Q 110.45 150.3 110.25 150.3 Z"/>
</g>
</defs>

<g id="headwinds">
<g transform="matrix( 1, 0, 0, 1, 0,0) ">
<use xlink:href="#Layer0_0_FILL"/>
</g>
</g>
</svg>
