
<svg xmlns="http://www.w3.org/2000/svg" version="1.1" xmlns:xlink="http://www.w3.org/1999/xlink" preserveAspectRatio="none" x="0px" y="0px" width="200px" height="200px" viewBox="0 0 200 200">
<defs>
<g id="Layer0_0_FILL">
<path fill="#000000" stroke="none" d="
M 62.4 124.75
Q 60.8109375 125.9947265625 58.8 126
L 30.6 126
Q 34.0806640625 131.2380859375 37.85 135.25
L 50.65 148.85
Q 58.85 157.25 69.05 166.45 82.05 178.2 90.85 184.1 94 185.55 95.3 185.95
L 98.25 185.95 98.25 185.9 100.15 185.9
Q 101.45 185.5 104.6 184 113.3890625 178.1353515625 126.4 166.4 136.6 157.2 144.8 148.8
L 157.6 135.2
Q 161.6369140625 130.9033203125 165.3 125.2
L 137.2 125.2
Q 135.6640625 125.2001953125 134.3 124.45 132.9462890625 123.6970703125 132.1 122.4
L 119.6 102.6 102.85 151.55
Q 102.235546875 153.4056640625 100.6 154.5 99.00703125 155.6498046875 97.05 155.6 95.08828125 155.5521484375 93.5 154.35 91.968359375 153.147265625 91.4 151.25
L 73.4 88.8 64.6 121.55
Q 64.053125 123.5123046875 62.4 124.75
M 181.6 72.8
Q 179.75 63.6 178.6 59.6 176.25 51.6 172.6 45.9 162.75 30.6 140.8 28 119.8 25.5 106.6 39.3 100.156640625 46.036328125 97.7 53.25 95.27109375 46.062890625 88.85 39.35 75.65 25.55 54.65 28.05 32.7 30.65 22.85 45.95 19.2 51.65 16.85 59.65 15.7 63.65 13.85 72.85 11.55 84.35 19.85 104.95 21.7853515625 109.7392578125 23.85 114
L 54.2 114 67.4 64.85
Q 67.924609375 62.898828125 69.5 61.65 71.1318359375 60.4134765625 73.15 60.4 75.157421875 60.384765625 76.75 61.6 78.4068359375 62.8037109375 78.95 64.7
L 97.7 129.6 112.3 86.85
Q 113.0927734375 84.6330078125 115.15 83.5 117.26796875 82.399609375 119.55 83 121.8197265625 83.6119140625 123.05 85.6
L 140.5 113.2 171.95 113.2
Q 173.8341796875 109.2701171875 175.6 104.9 183.9 84.3 181.6 72.8 Z"/>
</g>
</defs>

<g id="health">
<g transform="matrix( 1, 0, 0, 1, 0,0) ">
<use xlink:href="#Layer0_0_FILL"/>
</g>
</g>
</svg>
