
<svg xmlns="http://www.w3.org/2000/svg" version="1.1" xmlns:xlink="http://www.w3.org/1999/xlink" preserveAspectRatio="none" x="0px" y="0px" width="200px" height="200px" viewBox="0 0 200 200">
<defs>
<g id="Layer0_0_FILL">
<path fill="#000000" stroke="none" d="
M 156.25 46.1
Q 154.7943359375 45.1943359375 153.1 45.2
L 42.95 45.2
Q 41.2556640625 45.1943359375 39.8 46.1 38.336328125 47.0203125 37.55 48.55 36.8076171875 50.119921875 36.95 51.8
L 48.25 161
Q 48.5095703125 163.305078125 50.2 164.85 51.941015625 166.3998046875 54.25 166.4
L 141.9 166.4
Q 144.208984375 166.4 145.9 164.85 147.640234375 163.29453125 147.85 161
L 153.1 109.5 153.15 109.35
Q 153.167578125 109.2935546875 153.15 109.2
L 153.15 109.2 153.2 109.05 159.05 51.8
Q 159.241796875 50.12265625 158.45 48.55 157.7134765625 47.0203125 156.25 46.1
M 99.2 71.95
Q 85.5888671875 68.448828125 82.1 82.05
L 82.05 82.1 80.7 87.5
Q 67.0853515625 85.1 52.55 85.35
L 49.6 57.2 146.45 57.2 141.85 101.9
Q 138.0419921875 101.3765625 134.15 100.7
L 135.45 95.65
Q 138.9486328125 82.029296875 125.4 78.55
L 125.35 78.5 99.15 71.9 99.2 71.95
M 91.05 95.55
L 93.7 85.05 93.7 84.95
Q 94.24921875 83.060546875 96.2 83.55
L 96.2 83.55 122.4 90.15 122.4 90.15
Q 124.351171875 90.6703125 123.85 92.65
L 121.1 103.55 121.1 103.6
Q 121.033203125 103.8205078125 120.95 104
L 117.25 118.5 117.25 118.55
Q 117.005078125 119.6431640625 116.6 120.2 115.965625 120.26953125 114.9 120
L 114.85 119.95 88.65 113.35 88.7 113.4
Q 86.690625 112.876953125 87.15 110.85
L 87.15 110.85 90.95 95.95
Q 91.026171875 95.77265625 91.05 95.55 Z"/>
</g>
</defs>

<g id="alcohol">
<g transform="matrix( 1, 0, 0, 1, 0,0) ">
<use xlink:href="#Layer0_0_FILL"/>
</g>
</g>
</svg>
