
<svg xmlns="http://www.w3.org/2000/svg" version="1.1" xmlns:xlink="http://www.w3.org/1999/xlink" preserveAspectRatio="none" x="0px" y="0px" width="100px" height="100px" viewBox="0 0 100 100">
<defs>
<radialGradient id="Gradient_1" gradientUnits="userSpaceOnUse" cx="0" cy="0" r="74.175" fx="0" fy="0" gradientTransform="matrix( 1, 0, 0, 0.9994944388270981, 35.75,10.85) " spreadMethod="pad">
<stop  offset="0%" stop-color="#9EDBF3"/>

<stop  offset="0%" stop-color="#94CCE2"/>
</radialGradient>

<g id="bw_0_Layer0_0_FILL">
<path fill="#839D9E" stroke="none" d="
M 87.25 21.55
Q 87 20.05 86.05 16.5 85.75 15.7 85.1 13.95 84.65 10.65 79.7 5.85 78.15 4.35 76.65 3.35 74.75 2.05 72.95 1.65 71.25 1.15 70.3 0.9 68.5 0.4 67.3 0.35 65.05 0.3 63.8 0.3 62.85 0.15 61.9 0.1
L 59.3 0
Q 56.9 0.25 55.4 0.6 54.5 0.75 53.45 1.15 52.3 1.55 51.65 1.85 51.35 2.05 51.1 2.2 49.7 2.75 48.35 3.35 45.95 4.45 43.9 5.85 41.1 7.75 38.8 10.3 35.95 13.45 34.55 15 32.15 17.6 30.15 19.6 28.7 21 26.1 24.25 23.5 27.45 22.15 28.8 19.4 31.45 17.95 32.7 15.9 34.4 14.05 35.4 12 36.4 9.35 36.85 8.9 37.05 8.2 37.2 6.3 37.65 4.25 37.55 3.2 37.5 1.95 37 1.05 36.9 0 36.45 0.1 36.6 0.25 36.85 0.35 36.95 0.4 36.95 1.8 38.5 2.35 38.95 3.65 39.9 4.35 40.4 5.6 41.3 6.85 41.95 8.55 42.85 9.75 43.35 11.05 43.95 12.15 44.25 12.2 44.25 12.3 44.3 12.95 44.35 13.6 44.5 15.05 44.7 15.2 44.75 17.95 45.1 18.15 45.1
L 19.35 45.1
Q 20.7 44.9 21.75 44.75 22.1 44.75 22.45 44.65
L 22.5 44.65
Q 22.7 44.6 22.85 44.55 25.45 44.25 28.9 42.6 30.25 41.95 31.35 41.3 31.45 41.2 31.6 41.2 31.9 41.1 32.1 41 34.05 39.9 35.3 38.75 35.25 40.15 35.3 41.3 35.45 41.7 35.6 42.6 35.7 43.1 35.75 43.45 36 43.95 36.4 44.9 36.75 45.6 36.9 46.05
L 36.95 46
Q 38.35 49.4 41.1 52 41.35 52.35 41.7 52.6 47.25 58.85 56.55 59.8
L 60.35 59.95
Q 65.15 59.65 68.15 58.5
L 68.15 58.55
Q 69.5 58.25 72.25 57 75.35 55.55 76.3 54.95 77.85 54 79.25 52.5 81.15 50.4 81.65 49.95 83.65 48.25 85.05 45.2 86.15 42.9 86.4 40.95 86.6 40.45 86.75 40.1 86.9 39 87.15 37.05 87.6 32.6 87.65 31.6 87.8 29.2 87.65 26.45 87.5 23.6 87.25 21.55
M 83.75 27.15
Q 84 29.4 83.8 34.75 83.25 38.6 81.65 42.3 81.1 43.6 80.55 44.65 80.35 45.1 80.05 45.65 78.65 48.1 76.2 50.1 74.15 51.75 71.65 52.95
L 71.6 52.95
Q 66.3 56.1 57.4 55.7 47.4 55.3 42.65 49.9 39.2 45.95 38.9 39.8 38.7 38.2 38.75 36.45 38.85 34.4 39.85 31.9 40.15 31.2 40.4 30.55 40.7 30.25 40.95 30.05 42.3 28.85 43.15 28.05
L 43.2 28
Q 44.8 26.05 47.15 24.5 53.8 20.1 60.9 22.4 65.2 24.85 67.15 29 68.65 32.2 68.45 36 68.35 39.1 66.45 41.7 63.75 45.55 58.2 45.95
L 58.15 45.95
Q 58 45.9 57.8 45.9 57.05 45.95 55.9 45.9 55.85 45.9 55.8 45.9
L 55.6 45.9
Q 53.9 45.85 52.65 45.2 52.1 44.9 51.8 44.65 51.25 44.25 50.55 43.3 49.85 42.3 49.55 41.6 49.25 41 49.25 40.2 49.2 39.9 49.15 39.8 49.15 39.7 49.05 39.05 49 38.45 49.05 38.2 49.05 38 49.25 37.15 49.35 37.05 49.4 36.95 48.2 37.9 48.15 40.15 48.1 40.55 48.15 40.95 48.15 41 48.15 41.1 48.15 41.3 48.15 41.55 48.3 43.1 49 44.25 49.75 45.45 51.1 46.3 53.2 48.15 56.55 48.35 65.4 48.7 70.05 41.7 71.6 39.4 72.5 36.55 73.1 34.6 73.15 33.6 73.2 32.8 73.15 31.7 73 30.4 72.95 29.75 72.95 29.4 72.8 28.85 72.55 27.95 72.5 27.8 72.15 27.1 71.85 26.75 71.4 25.6 70.65 24.5 67.6 20.25 60.15 18.05
L 55.45 17.85 55.45 17.9
Q 52.4 18.15 50.25 18.6 50.05 18.65 49.8 18.75 49.75 18.8 49.7 18.8 48.35 19.55 47.1 20.15
L 47.1 20.2
Q 47 20.25 46.95 20.25 46.6 20.5 46.15 20.85 45.35 21.3 44.8 21.65 44.5 21.8 44.25 22 44.1 22.15 43.9 22.3 42.85 23.3 41.55 24.9 40.95 25.6 39.35 27.65 38 29.4 35.55 33.05 35.2 33.55 34.35 34.3 33.7 34.9 33.35 35.3 31.8 37.05 29.4 38.5 22.75 42.65 13.65 42.25 13.35 42.25 13.05 42.2 13 42.2 12.95 42.2 11.45 42.15 9 41.3 7.1 40.6 6 39.9 5.35 39.65 4.75 39.4 3.4 38.8 2.05 37.95 4.25 39 8.25 39.15 10.15 39.25 13.65 37.9 15.85 37 18.2 35.8 18.55 35.45 19.15 35.05 21.7 33.05 23.55 31.5 30.7 25.45 35.35 19.15 36.05 18.15 37.8 16.35 40.55 13.5 43.5 11.1 51.15 5.25 58.5 4.45 60.2 4.1 63 4.15 63.4 4 64.65 4 68.95 4.25 73.75 7.2 75.7 8.45 76.95 9.65 77.05 9.8 77.15 9.9 77.4 10.1 77.6 10.3 79.35 12.25 80.35 14.3 81.05 15.85 81.75 18.4 83.45 24.9 83.75 27.15
M 50.3 57.05
L 50.35 57.1
Q 50.2 57.1 50.05 57 50.15 57 50.3 57.05 Z"/>

<path fill="url(#Gradient_1)" stroke="none" d="
M 50.35 57.1
L 50.3 57.05
Q 50.15 57 50.05 57 50.2 57.1 50.35 57.1 Z"/>

<path fill="#FFFFFF" stroke="none" d="
M 83.8 34.75
Q 84 29.4 83.75 27.15 83.45 24.9 81.75 18.4 81.05 15.85 80.35 14.3 79.35 12.25 77.6 10.3 77.4 10.1 77.15 9.9 77.05 9.8 76.95 9.65 75.7 8.45 73.75 7.2 68.95 4.25 64.65 4 63.4 4 63 4.15 60.2 4.1 58.5 4.45 51.15 5.25 43.5 11.1 40.55 13.5 37.8 16.35 36.05 18.15 35.35 19.15 30.7 25.45 23.55 31.5 21.7 33.05 19.15 35.05 18.55 35.45 18.2 35.8 15.85 37 13.65 37.9 10.15 39.25 8.25 39.15 4.25 39 2.05 37.95 3.4 38.8 4.75 39.4 5.35 39.65 6 39.9 7.1 40.6 9 41.3 11.45 42.15 12.95 42.2 13 42.2 13.05 42.2 13.35 42.25 13.65 42.25 22.75 42.65 29.4 38.5 31.8 37.05 33.35 35.3 33.7 34.9 34.35 34.3 35.2 33.55 35.55 33.05 38 29.4 39.35 27.65 40.95 25.6 41.55 24.9 42.85 23.3 43.9 22.3 44.1 22.15 44.25 22 44.5 21.8 44.8 21.65 45.35 21.3 46.15 20.85 46.6 20.5 46.95 20.25 47 20.25 47.1 20.2
L 47.1 20.15
Q 48.35 19.55 49.7 18.8 49.75 18.8 49.8 18.75 50.05 18.65 50.25 18.6 52.4 18.15 55.45 17.9
L 55.45 17.85 60.15 18.05
Q 67.6 20.25 70.65 24.5 71.4 25.6 71.85 26.75 72.15 27.1 72.5 27.8 72.55 27.95 72.8 28.85 72.95 29.4 72.95 29.75 73 30.4 73.15 31.7 73.2 32.8 73.15 33.6 73.1 34.6 72.5 36.55 71.6 39.4 70.05 41.7 65.4 48.7 56.55 48.35 53.2 48.15 51.1 46.3 49.75 45.45 49 44.25 48.3 43.1 48.15 41.55 48.15 41.3 48.15 41.1 48.15 41 48.15 40.95 48.1 40.55 48.15 40.15 48.2 37.9 49.4 36.95 49.35 37.05 49.25 37.15 49.05 38 49.05 38.2 49 38.45 49.05 39.05 49.15 39.7 49.15 39.8 49.2 39.9 49.25 40.2 49.25 41 49.55 41.6 49.85 42.3 50.55 43.3 51.25 44.25 51.8 44.65 52.1 44.9 52.65 45.2 53.9 45.85 55.6 45.9
L 55.8 45.9
Q 55.85 45.9 55.9 45.9 57.05 45.95 57.8 45.9 58 45.9 58.15 45.95
L 58.2 45.95
Q 63.75 45.55 66.45 41.7 68.35 39.1 68.45 36 68.65 32.2 67.15 29 65.2 24.85 60.9 22.4 53.8 20.1 47.15 24.5 44.8 26.05 43.2 28
L 43.15 28.05
Q 42.3 28.85 40.95 30.05 40.7 30.25 40.4 30.55 40.15 31.2 39.85 31.9 38.85 34.4 38.75 36.45 38.7 38.2 38.9 39.8 39.2 45.95 42.65 49.9 47.4 55.3 57.4 55.7 66.3 56.1 71.6 52.95
L 71.65 52.95
Q 74.15 51.75 76.2 50.1 78.65 48.1 80.05 45.65 80.35 45.1 80.55 44.65 81.1 43.6 81.65 42.3 83.25 38.6 83.8 34.75 Z"/>
</g>
</defs>

<g transform="matrix( 1, 0, 0, 1, 5.65,23.55) ">
<g transform="matrix( 1, 0, 0, 1, 0,0) ">
<use xlink:href="#bw_0_Layer0_0_FILL"/>
</g>
</g>
</svg>
