
<svg xmlns="http://www.w3.org/2000/svg" version="1.1" xmlns:xlink="http://www.w3.org/1999/xlink" preserveAspectRatio="none" x="0px" y="0px" width="1024px" height="1024px" viewBox="0 0 1024 1024">
<defs>
<linearGradient id="Gradient_1" gradientUnits="userSpaceOnUse" x1="218" y1="227.3" x2="218" y2="227.3" spreadMethod="pad">
<stop  offset="0%" stop-color="#0F413F"/>

<stop  offset="100%" stop-color="#216B6E"/>
</linearGradient>

<linearGradient id="Gradient_2" gradientUnits="userSpaceOnUse" x1="526.85" y1="940.9375" x2="526.65" y2="264.7625" spreadMethod="pad">
<stop  offset="0%" stop-color="#0F3C3B"/>

<stop  offset="100%" stop-color="#175758"/>
</linearGradient>

<linearGradient id="Gradient_3" gradientUnits="userSpaceOnUse" x1="253.82500000000002" y1="882.8875" x2="465.875" y2="-33.087500000000034" spreadMethod="pad">
<stop  offset="0%" stop-color="#0F413F"/>

<stop  offset="100%" stop-color="#216B6E"/>
</linearGradient>

<linearGradient id="Gradient_4" gradientUnits="userSpaceOnUse" x1="162.3" y1="782.9375" x2="303.4" y2="198.2625" spreadMethod="pad">
<stop  offset="0%" stop-color="#0F413F"/>

<stop  offset="100%" stop-color="#216B6E"/>
</linearGradient>

<g id="mountains_0_Layer5_0_FILL">
<path fill="#0F3C3B" stroke="none" d="
M 864.35 206
Q 864.35 186 844.35 186
L 208.15 186
Q 188.15 186 188.15 206
L 188.15 962.25
Q 188.15 982.25 208.15 982.25
L 844.35 982.25
Q 864.35 982.25 864.35 962.25
L 864.35 206 Z"/>
</g>

<g id="mountains_0_Layer3_0_FILL">
<path fill="url(#Gradient_1)" stroke="none" d="
M 698.2 275.5
Q 703.55 288.1 708.15 292.6 714.4 298.75 719.85 308.2 721.6 311.15 727.25 322.45 727.55 322.95 727.85 323.45 733.05 333 736.05 335.85 737.75 337.3 737.65 342.2 737.55 345.05 737.05 351.3 736.95 362.6 746.9 360.65 746.7 362.4 749.55 376.3 750.15 379.1 750.6 381.45 769.6 402.35 771.8 405.5 789.85 430.5 785.2 449.55 781.8 463.85 797.5 480.65 815.65 499.7 815.85 521.95 815.85 542.5 831.2 564.95 846.5 587.2 846.5 600.3
L 838.3 643.85 838.15 643.85
Q 836.75 645.75 836 647.1 835.3 648.15 835 648.9 834.5 651.7 833.85 655.85
L 832.95 661.95
Q 832.45 664.35 833.4 665.85
L 833.15 666.6 833.7 671.3 831.3 671.3
Q 830.85 674 830.8 675.95
L 830.8 676.85
Q 830.8 689.75 848.8 734.1 860.9458984375 764.22734375 864.85 775.85
L 864.85 336
Q 823.2177734375 278.2232421875 764.7 264.75
L 685.8 264.75
Q 687.25 265.85 689.3 267.4 697.3 273.55 698.2 275.5 Z"/>

<path fill="url(#Gradient_2)" stroke="none" d="
M 685.8 264.75
Q 681.6 261.65 681.2 261.65 675.25 264 672.6 264.05
L 672.5 264.05
Q 671.9 264.05 671.2 263.9 670.45 263.6 669.45 263 667.6 261.75 666.85 261.65 666.45 262.3 666.25 262.5 665.85 262.9 664.95 262.9 660.6 260.75 659.5 259.9 659.3 262.7 658.45 263.3 658.05 263.5 655.9 263.5 650.55 262.9 648.1 262.9 649.45 267.2 652.9 287.8 655.9 305.95 656.5 314 655.4 323.35 654.45 333.9 653.95 339.85 653.35 346.2 647.5 390.65 628.95 411.75 619.05 423.05 612.65 449.7 601.7 494.25 601 496.5 585.45 543.45 539.95 551.55 523 561.65 489.1 573.05
L 489.1 646
Q 480.7 646.6 473.65 646.6 432.65 646.6 385.6 642.4 348.95 639.05 327.2 635.2 321.05 632.4 320.55 631.95 318 629.9 308.8 617.3 308.25 617.3 308.25 620.35 306.3 620.35 292.05 612.7 287.55 610.35 284.4 608.7 277 604.7 276.9 604.7
L 274.35 604.7
Q 270.95 613.7 269.7 615.25 266.55 619.05 258.75 619.05 253.85 619.05 245.65 616.15 239.7 613.95 234.15 611.25 233.55 614.25 233.75 618.4 233.15 619.55 230.7 620.2 227.8 620.9 222.3 620.9
L 188.65 619.8 188.65 983.05
Q 188.65 1003.05 208.65 1003.05
L 844.85 1003.05
Q 864.85 1003.05 864.85 983.05
L 864.85 775.85
Q 860.9458984375 764.22734375 848.8 734.1 830.8 689.75 830.8 676.85
L 830.8 675.95 830.8 671.3 832.3 664.95
Q 833.15 659.75 833.85 655.85
L 834.7 649.5
Q 834.8 649.2 835 648.9 835.3 648.15 836 647.1 836.75 645.75 838.15 643.85
L 838.3 643.85 846.5 600.3
Q 846.5 587.2 831.2 564.95 815.85 542.5 815.85 521.95 815.65 499.7 797.5 480.65 781.8 463.85 785.2 449.55 789.85 430.5 771.8 405.5 769.6 402.35 750.6 381.45 750.15 379.1 749.55 376.3 746.7 362.4 746.9 360.65 736.95 362.6 737.05 351.3 737.55 345.05 737.65 342.2 737.75 337.3 736.05 335.85 733.05 333 727.85 323.45 727.55 322.95 727.25 322.45 721.6 311.15 719.85 308.2 714.4 298.75 708.15 292.6 703.55 288.1 698.2 275.5 697.3 273.55 689.3 267.4 687.25 265.85 685.8 264.75 Z"/>

<path fill="url(#Gradient_3)" stroke="none" d="
M 833.4 665.85
Q 832.45 664.35 832.95 661.95
L 833.85 655.85
Q 833.15 659.75 832.3 664.95
L 830.8 671.3 831.3 671.3 833.7 671.3 833.15 666.6 833.4 665.85 Z"/>

<path fill="url(#Gradient_4)" stroke="none" d="
M 834.7 649.5
L 833.85 655.85
Q 834.5 651.7 835 648.9 834.8 649.2 834.7 649.5
M 672.6 264.05
Q 672.05 264 671.2 263.9 671.9 264.05 672.5 264.05
L 672.6 264.05 Z"/>
</g>

<g id="mountains_0_Layer2_0_FILL">
<path fill="#F97FAA" stroke="none" d="
M 527.65 654.35
L 502.4 654.35 502.4 871.65 502.4 895.5 527.65 895.5 527.65 871.65 527.65 654.35
M 476.5 565.25
L 451.3 565.25 451.3 578.15 451.3 816.65 451.3 835.8 475.25 835.8 476.5 835.8 476.5 578.05 476.5 565.25
M 559.25 564.25
L 559.25 578.05 559.25 834.8 584.5 834.8 584.5 816.8 584.5 578.15 584.5 564.25 559.25 564.25 Z"/>

<path fill="#F26194" stroke="none" d="
M 502.4 654.35
L 527.65 654.35 527.65 871.65 559.25 871.65 559.25 834.8 559.25 578.05 476.5 578.05 476.5 835.8 475.25 835.8 475.25 871.65 502.4 871.65 502.4 654.35 Z"/>

<path fill="#EC3676" stroke="none" d="
M 399.7 578.05
L 399.7 578.15 399.7 737.1 399.7 777.85 423.5 777.85 423.5 816.65 451.3 816.65 451.3 578.15 427.5 578.15 427.5 539.35 399.7 539.35 399.7 578.05
M 604.75 578.15
L 584.5 578.15 584.5 816.8 613.5 816.8 613.5 779.2 633.8 779.2 633.8 738.15 633.8 578.05 633.8 540.6 604.75 540.6 604.75 578.15 Z"/>

<path fill="#D42F69" stroke="none" d="
M 399.7 578.15
L 386.55 578.15 386.55 737.1 399.7 737.1 399.7 578.15
M 648.1 738.15
L 648.1 578.05 633.8 578.05 633.8 738.15 648.1 738.15 Z"/>
</g>

<g id="mountains_0_Layer1_0_FILL">
<path fill="#FFFFFF" stroke="none" d="
M 462.4 307.3
Q 443.4 341.95 421.8 390.55 394.4 451.6 381.05 496 380.85 496.55 380.8 497.05
L 406.6 497.05
Q 408.8 509.05 414 540.7 421.3 587.25 422.25 608.5
L 603.25 608.5
Q 604.2 587.25 611.5 540.7 616.55 509.05 618.9 497.05
L 644.7 497.05
Q 644.6 496.55 644.45 496 631 451.6 603.65 390.55 582 341.95 562.9 307.3 550.5 284.7 527.3 277.3 519.3 274.65 512.75 274.25 506.25 274.65 498.05 277.3 475 284.7 462.4 307.3 Z"/>

<path fill="#CCCCCC" stroke="none" d="
M 657.9 618.85
Q 664.15 603.9 661.5 575.25 658.75 543.6 644.7 497.05
L 618.9 497.05
Q 616.55 509.05 611.5 540.7 604.2 587.25 603.25 608.5
L 422.25 608.5
Q 421.3 587.25 414 540.7 408.8 509.05 406.6 497.05
L 380.8 497.05
Q 379 502.9 377.45 508.5 373.75 521.5 371.05 533.25 365.55 556.8 363.9 575.25 361.25 603.9 367.65 618.85 373.15 631.75 405.5 639.5 428.4 644.9 497.1 653.9
L 528.4 653.9
Q 597.05 644.9 619.9 639.5 652.25 631.75 657.9 618.85 Z"/>
</g>

<g id="mountains_0_Layer0_0_FILL">
<path fill="#CCCCCC" stroke="none" d="
M 467.35 427.2
Q 462.95 416.85 454.4 415.3 445.85 413.9 438.25 422.2 430.65 430.55 428.35 443.7 425.95 457.1 430.3 467.45 434.65 477.95 443.2 479.55 451.7 481.05 459.25 472.65 466.85 464.25 469.3 450.95 471.55 437.75 467.35 427.2
M 515.15 415.55
Q 506.55 415.55 500.45 425.1 494.45 434.7 494.45 448.2 494.45 461.7 500.45 471.15 506.55 480.75 515.15 480.75 523.85 480.75 529.95 471.15 535.95 461.7 535.95 448.2 535.95 434.7 529.95 425.1 523.85 415.55 515.15 415.55
M 589.5 422.2
Q 581.75 413.95 573.1 415.4 564.65 417.05 560.45 427.4 556.05 437.85 558.4 451.05 560.8 464.25 568.4 472.75 576.05 481.05 584.35 479.55 593.05 478.2 597.45 467.45 601.65 457.2 599.25 443.85 596.95 430.6 589.5 422.2 Z"/>
</g>

<path id="mountains_0_Layer2_0_1_STROKES" stroke="#104544" stroke-width="10.25" stroke-linejoin="miter" stroke-linecap="square" stroke-miterlimit="3" fill="none" d="
M 399.7 578.05
L 386.55 578.05"/>

<path id="mountains_0_Layer2_0_2_STROKES" stroke="#7B032D" stroke-width="10.25" stroke-linejoin="miter" stroke-linecap="square" stroke-miterlimit="3" fill="none" d="
M 386.55 578.05
L 386.55 578.15
M 648.1 578.05
L 633.8 578.05"/>

<path id="mountains_0_Layer1_0_1_STROKES" stroke="#333333" stroke-width="8" stroke-linejoin="round" stroke-linecap="round" fill="none" d="
M 380.8 497.05
Q 379 502.9 377.45 508.5 373.75 521.5 371.05 533.25 365.55 556.8 363.9 575.25 361.25 603.9 367.65 618.85 373.15 631.75 405.5 639.5 428.4 644.9 497.1 653.9
L 528.4 653.9
Q 597.05 644.9 619.9 639.5 652.25 631.75 657.9 618.85 664.15 603.9 661.5 575.25 658.75 543.6 644.7 497.05
M 380.8 497.05
Q 380.85 496.55 381.05 496 394.4 451.6 421.8 390.55 443.4 341.95 462.4 307.3 475 284.7 498.05 277.3 506.25 274.65 512.75 274.25 519.3 274.65 527.3 277.3 550.5 284.7 562.9 307.3 582 341.95 603.65 390.55 631 451.6 644.45 496 644.6 496.55 644.7 497.05"/>
</defs>

<g transform="matrix( 0.9999847412109375, 0, 0, 0.9999847412109375, 0,0) ">
<g transform="matrix( 1, 0, 0, 0.9999847412109375, -8.15,-90) ">
<g transform="matrix( 1, 0, 0, 1, 0,0) ">
<use xlink:href="#mountains_0_Layer5_0_FILL"/>
</g>

<g transform="matrix( 1, 0, 0, 1, 0,0) ">
<use xlink:href="#mountains_0_Layer3_0_FILL"/>
</g>

<g transform="matrix( 1, 0, 0, 1, 0,0) ">
<use xlink:href="#mountains_0_Layer2_0_FILL"/>

<use xlink:href="#mountains_0_Layer2_0_1_STROKES"/>

<use xlink:href="#mountains_0_Layer2_0_2_STROKES"/>
</g>

<g transform="matrix( 1, 0, 0, 1, 0,0) ">
<use xlink:href="#mountains_0_Layer1_0_FILL"/>

<use xlink:href="#mountains_0_Layer1_0_1_STROKES"/>
</g>

<g transform="matrix( 1, 0, 0, 1, 0,0) ">
<use xlink:href="#mountains_0_Layer0_0_FILL"/>
</g>
</g>
</g>
</svg>
